<svg width="151" height="157" viewBox="0 0 151 157" fill="none" xmlns="http://www.w3.org/2000/svg">
<g clip-path="url(#clip0_30_613)">
<path d="M138.228 134.318L131.325 140.674L136.811 131.468C132.489 123.63 125.42 116.856 125.42 116.856C125.42 116.856 110.753 130.907 110.753 141.953C110.753 152.998 117.32 156.855 125.42 156.855C133.519 156.855 140.086 152.998 140.086 141.953C140.086 139.494 139.358 136.887 138.228 134.318Z" fill="#F2F2F2"/>
<path d="M129.55 141.018V141.562C129.517 147.891 128.45 152.829 126.356 156.306C126.326 156.357 126.294 156.405 126.264 156.457L126.03 156.314L125.806 156.174C128.129 152.419 128.951 147.112 128.981 141.592C128.984 141.414 128.986 141.234 128.984 141.053C128.976 138.716 128.833 136.352 128.604 134.056C128.587 133.878 128.569 133.698 128.55 133.517C128.232 130.488 127.773 127.593 127.304 125.078C127.272 124.9 127.237 124.722 127.202 124.547C126.391 120.294 125.563 117.213 125.375 116.531C125.353 116.448 125.34 116.402 125.337 116.391L125.593 116.318L125.596 116.316L125.854 116.243C125.857 116.254 125.903 116.407 125.978 116.693C126.267 117.76 127.016 120.658 127.752 124.48C127.784 124.652 127.819 124.83 127.852 125.008C128.234 127.048 128.609 129.329 128.905 131.722C128.981 132.323 129.048 132.916 129.108 133.501C129.129 133.681 129.148 133.862 129.164 134.04C129.412 136.522 129.541 138.848 129.55 141.018Z" fill="white"/>
<path d="M127.752 124.48C127.571 124.504 127.388 124.528 127.202 124.547C126.697 124.599 126.189 124.625 125.682 124.625C123.518 124.628 121.381 124.146 119.429 123.213C119.316 123.356 119.202 123.499 119.086 123.644C121.14 124.647 123.396 125.167 125.682 125.164C126.224 125.164 126.765 125.135 127.304 125.078C127.488 125.059 127.671 125.035 127.851 125.008C129.342 124.794 130.792 124.355 132.15 123.706C132.035 123.558 131.921 123.412 131.811 123.27C130.525 123.871 129.157 124.278 127.752 124.48Z" fill="white"/>
<path d="M129.107 133.501C128.921 133.512 128.735 133.517 128.549 133.517C128.493 133.52 128.434 133.52 128.377 133.52C126.032 133.52 123.723 132.953 121.645 131.867C119.566 130.782 117.782 129.21 116.442 127.286C116.334 127.445 116.227 127.604 116.122 127.765C117.518 129.712 119.357 131.299 121.489 132.393C123.62 133.488 125.981 134.059 128.377 134.059C128.452 134.059 128.528 134.059 128.603 134.056C128.792 134.053 128.978 134.048 129.164 134.04C132.042 133.893 134.816 132.919 137.156 131.237C137.069 131.078 136.983 130.919 136.894 130.76C134.621 132.412 131.914 133.364 129.107 133.501Z" fill="white"/>
<path d="M129.55 141.018C129.361 141.034 129.172 141.045 128.984 141.053C128.781 141.061 128.579 141.067 128.377 141.067C125.227 141.063 122.162 140.039 119.642 138.148C117.123 136.257 115.283 133.6 114.399 130.576C114.278 130.795 114.157 131.01 114.041 131.229C115.037 134.246 116.958 136.872 119.531 138.735C122.105 140.598 125.2 141.602 128.377 141.606C128.579 141.606 128.781 141.603 128.981 141.592C129.172 141.587 129.361 141.576 129.55 141.562C133.361 141.264 136.916 139.529 139.495 136.708C139.439 136.509 139.374 136.312 139.309 136.113C136.818 138.955 133.317 140.714 129.55 141.018Z" fill="white"/>
<path d="M113.403 33.9467L38.3156 24.3737C38.1133 24.3478 37.9096 24.3345 37.7057 24.3341C37.5047 24.3338 37.3038 24.3464 37.1045 24.3721C36.9054 24.3977 36.7083 24.4362 36.5143 24.4876C36.318 24.54 36.1253 24.605 35.9375 24.6822C35.7534 24.7578 35.5741 24.8445 35.4005 24.9418C35.2246 25.0398 35.0546 25.1482 34.8914 25.2662C34.7246 25.3874 34.5647 25.5179 34.4126 25.6572C34.2555 25.8005 34.1063 25.9521 33.9655 26.1114C33.821 26.2754 33.685 26.4468 33.558 26.6247C33.4297 26.8049 33.3093 26.9923 33.1969 27.187C33.0844 27.3823 32.98 27.5854 32.8838 27.7963C32.7875 28.0071 32.6997 28.2252 32.6203 28.4503C32.5382 28.6831 32.4661 28.921 32.4043 29.1641C32.3424 29.4072 32.2907 29.6546 32.2492 29.9061C32.2085 30.1575 32.1774 30.4129 32.1557 30.6725C32.1341 30.932 32.1233 31.1947 32.1233 31.4605C32.1242 31.7261 32.135 31.9909 32.1557 32.2548C32.1765 32.5186 32.2077 32.7804 32.2492 33.0399C32.2911 33.3006 32.343 33.5586 32.4049 33.8141C32.4668 34.0695 32.5388 34.322 32.621 34.5716C32.7004 34.8128 32.7882 35.0485 32.8844 35.2786C32.9807 35.509 33.085 35.733 33.1975 35.9508C33.31 36.1686 33.4304 36.3802 33.5586 36.5855C33.6867 36.7916 33.8225 36.9899 33.9661 37.1805C34.1097 37.371 34.2588 37.5528 34.4132 37.7259C34.5677 37.8978 34.7273 38.0601 34.8921 38.2125C35.0569 38.365 35.2266 38.5075 35.4011 38.6398C35.5738 38.7709 35.753 38.893 35.9381 39.0058C36.1245 39.1195 36.3171 39.2228 36.515 39.315C36.7069 39.4045 36.904 39.4826 37.1051 39.5489C37.3021 39.6139 37.5029 39.6669 37.7063 39.7076C37.9077 39.7477 38.1114 39.7753 38.3163 39.7903L113.404 45.2828C113.622 45.2987 113.842 45.2767 114.053 45.2179C114.16 45.188 114.265 45.1494 114.366 45.1024C114.471 45.0533 114.573 44.9964 114.67 44.9321C114.768 44.8669 114.862 44.7954 114.951 44.7179C115.044 44.6367 115.132 44.55 115.215 44.4584C115.303 44.3616 115.386 44.2602 115.463 44.1547C115.543 44.0461 115.619 43.9304 115.693 43.8076C115.766 43.6847 115.836 43.5565 115.901 43.4231C115.967 43.2896 116.028 43.151 116.085 43.0071C116.143 42.8635 116.196 42.7149 116.244 42.5614C116.293 42.4078 116.337 42.2497 116.377 42.087C116.42 41.9188 116.456 41.7474 116.486 41.5731C116.517 41.3988 116.543 41.2218 116.565 41.0423C116.586 40.8628 116.601 40.6809 116.612 40.4966C116.622 40.3123 116.627 40.126 116.627 39.9376C116.627 39.7494 116.621 39.5621 116.612 39.3756C116.602 39.1892 116.586 39.0042 116.565 38.8205C116.544 38.6369 116.518 38.4548 116.486 38.2742C116.455 38.0936 116.419 37.9149 116.377 37.7382C116.337 37.5673 116.293 37.4003 116.244 37.2372C116.196 37.0763 116.143 36.9178 116.085 36.7616C116.028 36.6054 115.966 36.454 115.901 36.3074C115.836 36.1609 115.767 36.0188 115.693 35.8811C115.619 35.7433 115.542 35.6122 115.463 35.4878C115.383 35.3635 115.301 35.2456 115.215 35.1342C115.13 35.0228 115.042 34.9185 114.951 34.8214C114.862 34.7263 114.768 34.6359 114.67 34.5508C114.573 34.4675 114.472 34.3902 114.366 34.3195C114.266 34.2527 114.161 34.1931 114.053 34.1411C113.949 34.0913 113.841 34.0497 113.731 34.0165C113.624 33.9843 113.514 33.961 113.403 33.9467Z" fill="#6C63FF"/>
<path d="M113.403 55.5375L38.3156 53.7391C37.9083 53.729 37.5014 53.7706 37.1045 53.8627C36.9043 53.9093 36.7072 53.9684 36.5143 54.0395C36.3171 54.1122 36.1245 54.1967 35.9374 54.2926C35.7528 54.3872 35.5735 54.4921 35.4005 54.6066C35.2242 54.7234 35.0542 54.8496 34.8914 54.9846C34.7244 55.1232 34.5646 55.2703 34.4126 55.4252C34.2579 55.5827 34.1089 55.7501 33.9655 55.9274C33.8221 56.1052 33.6862 56.2905 33.558 56.4832C33.4297 56.6759 33.3093 56.8758 33.1969 57.0828C33.0844 57.2898 32.98 57.5037 32.8838 57.7245C32.7875 57.9454 32.6997 58.1725 32.6203 58.4059C32.5381 58.6475 32.4661 58.893 32.4043 59.1424C32.3424 59.3917 32.2907 59.6444 32.2492 59.9003C32.2085 60.1561 32.1774 60.4149 32.1557 60.6767C32.1341 60.9384 32.1233 61.2022 32.1233 61.468C32.1242 61.7338 32.135 61.9975 32.1557 62.259C32.1765 62.5205 32.2076 62.7791 32.2492 63.0347C32.2911 63.2891 32.343 63.5407 32.4049 63.7897C32.4668 64.0387 32.5388 64.2837 32.621 64.5249C32.7004 64.7589 32.7882 64.986 32.8844 65.2062C32.9807 65.4264 33.085 65.6397 33.1975 65.846C33.31 66.0524 33.4304 66.2515 33.5586 66.4433C33.6867 66.6345 33.8225 66.8184 33.9661 66.9949C34.1097 67.1714 34.2588 67.3378 34.4132 67.4942C34.5652 67.6482 34.725 67.7943 34.8921 67.9319C35.0549 68.0659 35.2248 68.191 35.4011 68.3066C35.5742 68.4201 35.7534 68.5237 35.9381 68.6171C36.1252 68.7118 36.3178 68.7951 36.515 68.8666C36.7079 68.9365 36.905 68.9942 37.1051 69.0395C37.3033 69.0847 37.5041 69.1172 37.7063 69.1369C37.909 69.1563 38.1127 69.1629 38.3163 69.1567L113.403 66.8722C113.513 66.8689 113.623 66.8562 113.731 66.8343C113.841 66.8121 113.948 66.7809 114.052 66.7412C114.16 66.6999 114.265 66.6504 114.366 66.5932C114.471 66.533 114.573 66.4656 114.67 66.3914C114.768 66.3159 114.862 66.2347 114.951 66.1481C115.044 66.0572 115.132 65.9615 115.215 65.8613C115.301 65.7592 115.383 65.6494 115.463 65.532C115.543 65.4145 115.619 65.2909 115.693 65.1611C115.766 65.0305 115.836 64.8951 115.901 64.7549C115.967 64.6148 116.028 64.4698 116.085 64.3202C116.143 64.1681 116.196 64.0134 116.244 63.8559C116.293 63.6984 116.337 63.5362 116.377 63.3692C116.42 63.1983 116.456 63.0241 116.486 62.8466C116.517 62.669 116.543 62.4893 116.565 62.3076C116.586 62.1253 116.601 61.9415 116.612 61.7561C116.622 61.5707 116.627 61.3838 116.627 61.1955C116.627 61.0088 116.621 60.8223 116.612 60.6361C116.602 60.4499 116.586 60.266 116.565 60.0846C116.544 59.9024 116.518 59.723 116.486 59.5463C116.455 59.3696 116.419 59.1947 116.377 59.0217C116.337 58.8547 116.293 58.692 116.244 58.5337C116.195 58.3754 116.143 58.2216 116.085 58.0724C116.029 57.9231 115.967 57.7785 115.902 57.6386C115.836 57.4986 115.767 57.3638 115.693 57.234C115.619 57.104 115.543 56.9807 115.463 56.8641C115.384 56.7475 115.301 56.6382 115.216 56.5361C115.133 56.4364 115.044 56.3412 114.951 56.2509C114.862 56.165 114.768 56.0844 114.67 56.0096C114.573 55.936 114.472 55.8692 114.366 55.8097C114.265 55.7533 114.161 55.7047 114.052 55.6643C113.948 55.6252 113.841 55.5947 113.731 55.5732C113.623 55.552 113.513 55.5401 113.403 55.5375Z" fill="#E4E4E4"/>
<path d="M113.403 75.7786L38.3156 81.2701C38.1108 81.2851 37.9071 81.3127 37.7057 81.3529C37.5022 81.3935 37.3015 81.4465 37.1045 81.5115C36.9033 81.5779 36.7063 81.656 36.5143 81.7454C36.3164 81.8377 36.1238 81.9409 35.9375 82.0546C35.7524 82.1674 35.5731 82.2896 35.4005 82.4206C35.2257 82.5541 35.056 82.6965 34.8914 82.8479C34.7268 83 34.5672 83.1622 34.4126 83.3346C34.2579 83.5069 34.1089 83.6887 33.9655 83.88C33.8221 84.0718 33.6862 84.2704 33.558 84.4756C33.4297 84.6809 33.3093 84.8924 33.1969 85.1102C33.0844 85.3283 32.98 85.5523 32.8838 85.7825C32.7875 86.0126 32.6997 86.2483 32.6203 86.4895C32.5382 86.7386 32.4661 86.9912 32.4043 87.247C32.3424 87.5029 32.2907 87.7606 32.2492 88.0202C32.2085 88.2802 32.1774 88.542 32.1557 88.8057C32.1341 89.0693 32.1233 89.3341 32.1233 89.5999C32.1242 89.8657 32.135 90.1284 32.1557 90.388C32.1765 90.6475 32.2077 90.9031 32.2492 91.1546C32.2911 91.4068 32.343 91.6543 32.4049 91.897C32.4668 92.1397 32.5388 92.3776 32.621 92.6107C32.7004 92.8361 32.7882 93.0542 32.8844 93.2648C32.9807 93.4757 33.085 93.6788 33.1975 93.8741C33.31 94.0694 33.4304 94.2569 33.5586 94.4364C33.6856 94.6143 33.8216 94.7856 33.9661 94.9497C34.1069 95.1089 34.2562 95.2606 34.4132 95.4039C34.5653 95.5431 34.7252 95.6737 34.8921 95.7948C35.0552 95.9129 35.2252 96.0213 35.4011 96.1193C35.5747 96.2166 35.754 96.3033 35.9381 96.3788C36.126 96.4561 36.3187 96.5211 36.515 96.5735C36.709 96.6248 36.9061 96.6634 37.1051 96.689C37.3045 96.7146 37.5053 96.7273 37.7063 96.727C37.9103 96.7265 38.114 96.7133 38.3163 96.6874L113.403 87.1166C113.514 87.1024 113.624 87.0791 113.731 87.0469C113.841 87.0137 113.949 86.972 114.053 86.9223C114.161 86.8702 114.266 86.8106 114.366 86.7438C114.472 86.6731 114.573 86.5959 114.67 86.5125C114.768 86.4274 114.862 86.3371 114.951 86.2419C115.041 86.1446 115.129 86.0403 115.215 85.9291C115.301 85.818 115.383 85.7001 115.463 85.5755C115.543 85.4509 115.619 85.3198 115.693 85.1823C115.766 85.0456 115.836 84.9035 115.901 84.756C115.967 84.6084 116.028 84.457 116.085 84.3017C116.143 84.1458 116.196 83.9863 116.244 83.8232C116.293 83.6601 116.337 83.4931 116.377 83.3222C116.42 83.1453 116.456 82.9665 116.486 82.7859C116.517 82.6053 116.543 82.4232 116.565 82.2396C116.586 82.0559 116.601 81.8709 116.612 81.6845C116.622 81.498 116.627 81.3106 116.627 81.1222C116.626 80.9349 116.621 80.7491 116.611 80.5648C116.602 80.3805 116.586 80.1986 116.564 80.0191C116.544 79.8389 116.518 79.6617 116.486 79.4873C116.455 79.313 116.419 79.1417 116.377 78.9734C116.337 78.8105 116.293 78.6524 116.244 78.4991C116.196 78.3457 116.144 78.1971 116.086 78.0533C116.028 77.9094 115.967 77.7708 115.902 77.6373C115.836 77.5049 115.766 77.3771 115.692 77.2538C115.618 77.1305 115.542 77.0148 115.462 76.9067C115.385 76.8012 115.302 76.6998 115.215 76.603C115.132 76.5113 115.043 76.4247 114.95 76.3434C114.861 76.266 114.767 76.1945 114.669 76.1293C114.572 76.065 114.47 76.008 114.365 75.959C114.264 75.912 114.159 75.8733 114.052 75.8435C113.841 75.7846 113.621 75.7627 113.403 75.7786Z" fill="#E4E4E4"/>
<path d="M72.4764 76.7848C72.9521 77.5756 73.7016 78.1642 74.5826 78.4388C75.4636 78.7135 76.4148 78.6551 77.2556 78.2748C78.0964 77.8944 78.7683 77.2185 79.1437 76.3755C79.519 75.5325 79.5718 74.5809 79.2919 73.7015L93.8445 43.8041L86.8787 39.5812L74.3107 71.3384C74.2627 71.3571 74.2154 71.3767 74.1688 71.3971C74.1223 71.4176 74.0759 71.439 74.0296 71.4612C73.9834 71.4835 73.9375 71.5069 73.892 71.5315C73.8464 71.5561 73.8012 71.582 73.7563 71.6091C72.9004 72.1257 72.2847 72.9611 72.0447 73.9317C71.8046 74.9022 71.9598 75.9283 72.4762 76.7844L72.4764 76.7848Z" fill="#9E616A"/>
<path d="M91.0664 55.3327L80.728 52.6829C80.728 52.6829 81.0656 51.9199 81.6142 50.6557C82.1628 49.3916 82.9293 47.6289 83.7915 45.6275C84.6537 43.6262 85.6104 41.39 86.5448 39.1796C87.4792 36.9691 88.3879 34.7852 89.1532 32.8922C89.9186 30.9992 90.7881 29.8655 91.6619 29.2301C92.3852 28.6804 93.2961 28.4382 94.1968 28.5562C94.8969 28.6605 95.5661 28.9152 96.1583 29.3028C96.4386 29.4773 96.7022 29.6773 96.9457 29.9004L99.3427 34.2596L91.0664 55.3327Z" fill="#CCCCCC"/>
<path d="M8.32905 52.965C8.07868 52.9835 7.82955 53.016 7.58283 53.0623C7.33451 53.1088 7.08897 53.169 6.84732 53.2427C6.60199 53.3176 6.36089 53.4058 6.1251 53.5068C5.88378 53.6101 5.64802 53.726 5.41879 53.854C5.19449 53.9801 4.97528 54.1172 4.76114 54.2654C4.54701 54.4135 4.33904 54.5727 4.13723 54.7429C3.93565 54.9127 3.74001 55.0938 3.55031 55.2861C3.36062 55.4783 3.17786 55.6811 3.00201 55.8944C2.82616 56.1077 2.6595 56.3286 2.50204 56.5572C2.34457 56.7858 2.19684 57.0214 2.05885 57.2639C1.92215 57.5068 1.79431 57.7562 1.67535 58.0123C1.55639 58.2684 1.44824 58.5305 1.35091 58.7985C1.24947 59.0764 1.16068 59.3573 1.08454 59.641C1.0084 59.9248 0.944917 60.211 0.89409 60.4995C0.843043 60.7881 0.804762 61.0786 0.779239 61.371C0.753717 61.6634 0.74096 61.957 0.740967 62.2518C0.740967 62.5467 0.753724 62.8377 0.779239 63.1249C0.804755 63.4122 0.843036 63.695 0.89409 63.9733C0.944919 64.2517 1.0084 64.5251 1.08454 64.7935C1.16068 65.062 1.24914 65.3249 1.34994 65.5823C1.44813 65.8308 1.55628 66.0712 1.67438 66.3035C1.79111 66.5334 1.91932 66.7574 2.05852 66.9745C2.19554 67.1874 2.34347 67.3932 2.50172 67.5909C2.65845 67.7874 2.82544 67.9755 3.00201 68.1545C3.17565 68.3304 3.35869 68.4967 3.55031 68.6528C3.73797 68.8057 3.93402 68.9479 4.13755 69.0788C4.53924 69.3373 4.96923 69.5489 5.41911 69.7095C5.8803 69.8743 6.35956 69.9832 6.84666 70.034C7.09099 70.0592 7.33658 70.07 7.58218 70.0664C7.83172 70.0629 8.08086 70.0453 8.3284 70.0135C8.57817 69.9817 8.82599 69.9361 9.07073 69.8769C9.3162 69.8176 9.55827 69.7449 9.79586 69.6592C10.0361 69.5725 10.2717 69.4732 10.5015 69.3617C10.7357 69.2481 10.964 69.1227 11.1855 68.986C11.4011 68.8515 11.6111 68.7072 11.8155 68.5532C12.0199 68.3992 12.2179 68.235 12.4096 68.0607C12.6012 67.8864 12.7863 67.7025 12.9647 67.5091C13.1431 67.3158 13.3147 67.1129 13.4793 66.9005C13.645 66.6883 13.8009 66.4697 13.9471 66.2448C14.0933 66.0198 14.2303 65.7889 14.3579 65.5521C14.4855 65.3153 14.6036 65.0729 14.7122 64.825C14.8207 64.5772 14.9197 64.3241 15.009 64.0658C15.1016 63.7985 15.1826 63.5289 15.252 63.257C15.3215 62.9851 15.3794 62.7113 15.4259 62.4355C15.4722 62.1595 15.5071 61.8821 15.5304 61.6033C15.5538 61.3245 15.5655 61.0445 15.5655 60.7633C15.5652 60.4821 15.5536 60.2044 15.5304 59.9301C15.5073 59.6559 15.4724 59.3855 15.4259 59.119C15.3797 58.853 15.3217 58.5908 15.252 58.3326C15.1824 58.0743 15.1014 57.8209 15.009 57.5724C14.9193 57.3319 14.8203 57.0986 14.7122 56.8726C14.6025 56.6472 14.4839 56.4285 14.3563 56.2166C14.1036 55.7976 13.8098 55.405 13.4793 55.0443C13.317 54.867 13.1457 54.6981 12.966 54.5385C12.789 54.3819 12.6037 54.2349 12.4109 54.0983C12.2199 53.9629 12.0216 53.8383 11.8168 53.7248C11.6122 53.6115 11.4014 53.5097 11.1855 53.4198C10.7395 53.2341 10.2732 53.1018 9.79619 53.0257C9.5561 52.9874 9.31398 52.9632 9.07106 52.9533C8.82359 52.9433 8.57574 52.9474 8.32874 52.9656" fill="#E4E4E4"/>
<path d="M8.32905 83.4627C8.07868 83.4812 7.82955 83.5137 7.58283 83.56C7.33451 83.6065 7.08897 83.6667 6.84732 83.7404C6.60199 83.8154 6.36089 83.9035 6.1251 84.0045C5.88378 84.1079 5.64802 84.2237 5.41879 84.3517C5.19449 84.4778 4.97528 84.6149 4.76114 84.7631C4.54701 84.9112 4.33904 85.0704 4.13723 85.2407C3.93565 85.4104 3.74001 85.5915 3.55031 85.7838C3.36062 85.9761 3.17786 86.1788 3.00201 86.3921C2.82616 86.6054 2.6595 86.8263 2.50204 87.0549C2.34457 87.2836 2.19684 87.5191 2.05885 87.7616C1.92215 88.0045 1.79431 88.254 1.67535 88.5101C1.55639 88.7661 1.44824 89.0282 1.35091 89.2962C1.24947 89.5741 1.16068 89.855 1.08454 90.1388C1.0084 90.4225 0.944917 90.7087 0.89409 90.9972C0.843043 91.2858 0.804762 91.5763 0.779239 91.8687C0.753717 92.1611 0.74096 92.4547 0.740967 92.7496C0.740967 93.0444 0.753724 93.3354 0.779239 93.6226C0.804755 93.9099 0.843036 94.1927 0.89409 94.4711C0.944919 94.7494 1.0084 95.0228 1.08454 95.2912C1.16068 95.5597 1.24914 95.8226 1.34994 96.08C1.44813 96.3285 1.55628 96.5689 1.67438 96.8012C1.79111 97.0312 1.91932 97.2551 2.05852 97.4722C2.19554 97.6851 2.34347 97.8909 2.50172 98.0886C2.65845 98.2851 2.82544 98.4732 3.00201 98.6522C3.17565 98.8281 3.35869 98.9944 3.55031 99.1505C3.73797 99.3034 3.93402 99.4456 4.13755 99.5765C4.53924 99.835 4.96923 100.047 5.41911 100.207C5.88029 100.372 6.35956 100.481 6.84666 100.532C7.09099 100.557 7.33658 100.568 7.58218 100.564C7.83172 100.561 8.08086 100.543 8.3284 100.511C8.57817 100.479 8.82599 100.434 9.07073 100.375C9.3162 100.315 9.55827 100.243 9.79586 100.157C10.0361 100.07 10.2717 99.9709 10.5015 99.8594C10.7357 99.7458 10.964 99.6204 11.1855 99.4837C11.4011 99.3492 11.6111 99.2049 11.8155 99.0509C12.0199 98.8969 12.2179 98.7327 12.4096 98.5584C12.6012 98.3841 12.7863 98.2002 12.9647 98.0069C13.1431 97.8135 13.3147 97.6106 13.4793 97.3982C13.645 97.186 13.8009 96.9675 13.9471 96.7425C14.0933 96.5176 14.2303 96.2867 14.3579 96.0498C14.4855 95.813 14.6036 95.5706 14.7122 95.3227C14.8207 95.0749 14.9197 94.8218 15.009 94.5635C15.1016 94.2962 15.1826 94.0266 15.252 93.7547C15.3215 93.4828 15.3794 93.209 15.4259 92.9332C15.4722 92.6572 15.5071 92.3798 15.5304 92.101C15.5538 91.8222 15.5655 91.5422 15.5655 91.261C15.5652 90.9798 15.5536 90.7021 15.5304 90.4278C15.5073 90.1536 15.4724 89.8832 15.4259 89.6167C15.3797 89.3507 15.3217 89.0885 15.252 88.8303C15.1824 88.572 15.1014 88.3186 15.009 88.0701C14.9193 87.8296 14.8203 87.5963 14.7122 87.3703C14.6025 87.1449 14.4839 86.9262 14.3563 86.7143C14.1036 86.2953 13.8098 85.9027 13.4793 85.542C13.317 85.3647 13.1457 85.1959 12.966 85.0362C12.789 84.8796 12.6037 84.7326 12.4109 84.596C12.2199 84.4606 12.0216 84.336 11.8168 84.2225C11.6122 84.1092 11.4014 84.0074 11.1855 83.9176C10.7395 83.7318 10.2732 83.5995 9.79619 83.5234C9.5561 83.4851 9.31398 83.4609 9.07106 83.451C8.82359 83.441 8.57574 83.4451 8.32874 83.4633" fill="#E4E4E4"/>
<path d="M8.33026 19.9262C8.08126 19.9202 7.83211 19.9283 7.58404 19.9506C7.33698 19.9727 7.0914 20.0091 6.84853 20.0596C6.60427 20.1106 6.36313 20.1756 6.12631 20.2542C5.88584 20.3338 5.65004 20.4269 5.42 20.5329C5.19484 20.6366 4.97531 20.7522 4.76235 20.8791C4.54729 21.0073 4.33904 21.1465 4.13844 21.2963C3.93461 21.4485 3.73862 21.611 3.5512 21.783C3.36065 21.958 3.17755 22.1435 3.00192 22.3394C2.82607 22.5356 2.65941 22.7404 2.50195 22.9539C2.34448 23.1674 2.19675 23.3887 2.05876 23.6177C1.92141 23.8498 1.79325 24.0876 1.67429 24.3312C1.55533 24.5747 1.44718 24.8263 1.34985 25.0858C1.24906 25.3534 1.16059 25.6254 1.08445 25.9018C1.00831 26.1782 0.944827 26.4582 0.893999 26.7418C0.842953 27.0262 0.804672 27.313 0.779149 27.6022C0.753627 27.8914 0.740869 28.1834 0.740876 28.4782C0.740876 28.7726 0.753634 29.0646 0.779149 29.3542C0.804664 29.6438 0.842945 29.9303 0.893999 30.2137C0.944829 30.497 1.00831 30.7766 1.08445 31.0523C1.16059 31.3281 1.24905 31.5996 1.34985 31.8667C1.44804 32.1247 1.55619 32.3756 1.67429 32.6194C1.79325 32.8623 1.92173 33.098 2.05971 33.3264C2.1977 33.5548 2.34543 33.7751 2.50291 33.9873C2.66016 34.2001 2.82681 34.4038 3.00288 34.5985C3.17895 34.7932 3.36172 34.977 3.55119 35.1501C3.73762 35.3214 3.93264 35.4832 4.13551 35.6348C4.33613 35.7832 4.54438 35.9211 4.75942 36.0478C4.97242 36.1734 5.19194 36.2875 5.41706 36.3898C5.64716 36.4944 5.88298 36.5859 6.12338 36.6639C6.59644 36.817 7.08558 36.915 7.5811 36.9559C8.07729 36.9971 8.57654 36.9819 9.06933 36.9108C9.31364 36.8755 9.55574 36.8263 9.79447 36.7635C10.0338 36.7005 10.2694 36.624 10.5001 36.5345C10.7336 36.444 10.9619 36.3407 11.1841 36.2253C11.4007 36.1127 11.6114 35.9892 11.8154 35.8551C12.0206 35.7201 12.2189 35.5749 12.4095 35.42C12.6011 35.2643 12.7862 35.0984 12.9646 34.9223C13.143 34.7463 13.3146 34.56 13.4792 34.3636C13.6449 34.1672 13.8008 33.9637 13.947 33.753C14.0932 33.5423 14.2302 33.3247 14.3578 33.1002C14.4858 32.8757 14.6039 32.6448 14.7121 32.4075C14.8202 32.1703 14.9192 31.9273 15.0089 31.6785C15.1015 31.4203 15.1825 31.1585 15.2519 30.8934C15.3214 30.6282 15.3793 30.36 15.4258 30.0887C15.4721 29.8164 15.507 29.542 15.5303 29.2653C15.5537 28.9887 15.5654 28.7097 15.5654 28.4286C15.5651 28.1476 15.5535 27.8688 15.5303 27.5922C15.5072 27.3155 15.4723 27.0418 15.4258 26.771C15.3796 26.5 15.3216 26.232 15.2519 25.967C15.1823 25.7021 15.1013 25.4408 15.0089 25.1832C14.9192 24.9342 14.8202 24.6914 14.7121 24.4548C14.6039 24.2182 14.4853 23.9877 14.3562 23.7634C14.2285 23.541 14.0916 23.3247 13.9454 23.1145C13.7992 22.9043 13.6438 22.7018 13.4792 22.5071C13.3157 22.3127 13.1446 22.1279 12.9659 21.9527C12.7872 21.7775 12.6022 21.6128 12.4108 21.4585C12.2203 21.3046 12.0221 21.1603 11.817 21.0264C11.613 20.8935 11.4023 20.7713 11.1857 20.6601C10.9635 20.546 10.7351 20.4442 10.5017 20.3551C10.2709 20.2671 10.0353 20.1921 9.79609 20.1306C9.55729 20.0693 9.31518 20.0216 9.07095 19.9878C8.82483 19.9539 8.57699 19.934 8.32862 19.9281M8.32862 19.1164C9.41851 19.1462 10.4874 19.4229 11.455 19.9256C12.4164 20.4283 13.2686 21.1167 13.9623 21.9511C14.6873 22.8205 15.252 23.812 15.6299 24.8792C16.4393 27.1761 16.4393 29.6807 15.6299 31.9777C15.2516 33.0479 14.687 34.0428 13.9623 34.9165C13.2685 35.7547 12.4164 36.4481 11.4546 36.9569C10.4884 37.4656 9.41963 37.7492 8.3283 37.7865C7.23025 37.8225 6.13867 37.6049 5.13836 37.1506C4.12853 36.688 3.22511 36.0219 2.48474 35.1939C1.69853 34.3171 1.0832 33.301 0.670451 32.198C-0.223484 29.7968 -0.223484 27.1541 0.670451 24.753C1.0836 23.6466 1.69882 22.6268 2.48474 21.7454C3.22489 20.9127 4.12807 20.2409 5.13836 19.7714C6.13789 19.3107 7.23003 19.0861 8.33025 19.1151L8.32862 19.1164Z" fill="#6C63FF"/>
<path d="M8.32957 30.7461L5.77393 25.422L6.38063 25.0268L8.48562 29.4006L17.3241 19.0119L17.8591 19.582L8.32957 30.7461Z" fill="#6C63FF"/>
<path d="M101.34 135.858L95.0132 135.834L97.0533 152.365L101.34 152.387V135.858Z" fill="#9E616A"/>
<path d="M102.433 156.546L88.6187 156.473V156.299C88.6184 155.944 88.653 155.59 88.7218 155.243C88.8576 154.557 89.1284 153.904 89.5183 153.324C89.9144 152.735 90.422 152.23 91.0124 151.837C91.5949 151.45 92.2485 151.182 92.9354 151.049C93.2836 150.982 93.6375 150.949 93.9921 150.952L102.433 150.993V156.546Z" fill="#2F2E41"/>
<path d="M81.0827 135.78L74.7742 135.755L76.8078 152.264L81.0827 152.286V135.78Z" fill="#9E616A"/>
<path d="M82.1726 156.439L68.3948 156.367V156.192C68.3947 155.838 68.4292 155.485 68.498 155.138C68.6334 154.452 68.9033 153.801 69.2922 153.221C69.687 152.633 70.1934 152.128 70.7827 151.736C71.3636 151.349 72.0157 151.082 72.7008 150.95C73.0481 150.883 73.4012 150.85 73.7549 150.852L82.1726 150.893V156.439Z" fill="#2F2E41"/>
<path d="M80.8144 68.2119L70.2061 107.801L74.089 145.75L82.6868 145.988L80.8147 111.721L91.5405 94.6213L93.8668 146.221L101.666 145.669L106.004 101.304C107.478 97.84 108.558 94.2216 109.226 90.5167C109.751 87.6086 110.006 84.6583 109.988 81.7032C109.979 79.7138 109.826 77.7277 109.531 75.7604C109.425 75.0272 109.282 74.3 109.102 73.5814L105.939 70.3749L80.8144 68.2119Z" fill="#2F2E41"/>
<path d="M94.8696 74.8332C93.0856 74.8332 91.4116 74.776 89.8937 74.6629C88.3432 74.5565 86.8008 74.3535 85.2755 74.055C83.9769 73.8125 82.7122 73.4143 81.5088 72.8691C80.5401 72.4507 79.6978 71.7859 79.0657 70.941L78.9934 70.8358L81.893 51.9653L85.0198 30.7476C85.2256 29.3435 85.9406 28.0642 87.0285 27.153C88.1165 26.2419 89.5015 25.7626 90.9199 25.8064L100.713 26.1064C101.447 26.129 102.169 26.2987 102.837 26.6056C103.504 26.9124 104.104 27.3502 104.599 27.8929C105.094 28.4357 105.475 29.0723 105.72 29.7651C105.964 30.4578 106.067 31.1927 106.023 31.926L104.737 53.0272L109.479 73.8413L109.143 73.8882C109.008 73.9061 108.488 73.9748 107.673 74.0665C106.607 74.1862 105.519 74.2942 104.439 74.3873C102.911 74.5191 101.415 74.6226 99.9943 74.6953C98.1921 74.7871 96.4648 74.8316 94.8696 74.8332Z" fill="#CCCCCC"/>
<path d="M89.4358 22.0568C89.4332 22.0569 89.4306 22.0569 89.428 22.0568C89.2225 22.0567 89.0191 22.0161 88.8294 21.9374C88.6396 21.8586 88.4672 21.7433 88.322 21.5979C88.1769 21.4526 88.0617 21.28 87.9832 21.0902C87.9047 20.9003 87.8644 20.6968 87.8645 20.4914V11.7606C87.863 10.1964 88.176 8.64786 88.7849 7.20705C89.9774 4.39536 92.2088 2.15229 95.0143 0.945284C96.7886 0.184242 98.724 -0.124876 100.647 0.0456083C102.57 0.216093 104.421 0.860856 106.034 1.92217C107.647 2.98348 108.971 4.4282 109.888 6.12696C110.806 7.82572 111.288 9.72549 111.291 11.6561V20.4002C111.291 20.6107 111.249 20.819 111.167 21.0128C111.006 21.3908 110.705 21.6921 110.328 21.8537C110.134 21.9364 109.926 21.9794 109.715 21.9799L89.4345 22.0568H89.4358Z" fill="#2F2E41"/>
<path d="M104.866 8.76632C105.683 10.2584 106.04 11.959 105.891 13.6535C105.742 15.348 105.094 16.9604 104.029 18.2869C102.964 19.6134 101.53 20.5946 99.9077 21.1065C98.2855 21.6185 96.548 21.6383 94.9146 21.1633C93.833 20.8525 92.8239 20.3302 91.9456 19.6266C91.0673 18.9229 90.3374 18.052 89.7981 17.0643C88.9832 15.5729 88.628 13.8736 88.7775 12.1807C88.9269 10.4877 89.5743 8.87692 90.6379 7.55137C91.7016 6.22581 93.1339 5.24485 94.7542 4.73218C96.3746 4.2195 98.1105 4.19806 99.743 4.67055C100.826 4.98022 101.836 5.50174 102.715 6.20488C103.595 6.90802 104.326 7.77878 104.866 8.76666V8.76632Z" fill="#9E616A"/>
<path d="M85.0952 12.4712C85.0941 11.2341 85.3417 10.0094 85.8233 8.86985C86.7661 6.6465 88.5308 4.8729 90.7493 3.91883C91.8876 3.43113 93.1123 3.17735 94.3506 3.17261L96.0981 3.16385C96.1177 3.16374 96.1373 3.16369 96.1569 3.1637C97.367 3.16444 98.565 3.40351 99.6826 3.86726C100.8 4.331 101.816 5.01034 102.671 5.86649C103.526 6.72263 104.204 7.73882 104.666 8.85702C105.129 9.97522 105.366 11.1735 105.365 12.3836V12.5584L101.669 12.5734L100.408 9.05185L100.156 12.5802L98.2469 12.5886L97.6113 10.812L97.4838 12.5909L85.0968 12.6464L85.0952 12.4712Z" fill="#2F2E41"/>
<path d="M70.2129 30.838C69.6441 30.9771 69.1122 31.2378 68.6537 31.6021C68.2954 31.8856 67.9891 32.2291 67.7482 32.6174C67.2733 33.3858 67.0641 34.2889 67.1527 35.1879C67.1974 35.642 67.3206 36.085 67.5167 36.497C67.7585 37.0105 68.1065 37.4668 68.5377 37.8359C68.9688 38.205 69.4734 38.4784 70.018 38.6382C70.5626 38.7979 71.135 38.8403 71.6972 38.7625C72.2594 38.6848 72.7987 38.4887 73.2796 38.1871C73.315 38.1642 73.3501 38.141 73.3849 38.1175C73.4196 38.0939 73.4537 38.0699 73.4872 38.0454C73.521 38.0208 73.5541 37.9958 73.5867 37.9705C73.6192 37.9452 73.6515 37.9195 73.6836 37.8934L94.0823 45.1534C94.7099 45.3766 95.3931 45.39 96.0289 45.1914C96.6648 44.9927 97.219 44.593 97.608 44.0522L102.444 37.3563L96.5972 33.4191L93.5289 36.9047L74.8607 33.1911C74.8403 33.1427 74.8192 33.0946 74.7974 33.0467C74.7756 32.9988 74.7528 32.9512 74.7291 32.9037C74.705 32.8564 74.6801 32.8093 74.6545 32.7624C74.629 32.7156 74.6019 32.6691 74.5734 32.623C74.128 31.9034 73.4663 31.3431 72.683 31.0225C71.8998 30.7018 71.0351 30.6373 70.2129 30.838Z" fill="#9E616A"/>
<path d="M93.8581 34.7065C94.4684 33.945 95.3215 32.9562 96.1883 31.9755C97.0551 30.9949 97.9347 30.0229 98.5983 29.2958C99.2618 28.5687 99.7083 28.0868 99.7083 28.0868C100.321 27.1607 101.235 26.4752 102.295 26.1467C103.356 25.8182 104.498 25.8669 105.526 26.2847C106.555 26.7024 107.407 27.4633 107.939 28.4382C108.47 29.4132 108.647 30.5419 108.441 31.6328C108.323 32.2608 108.079 32.8584 107.724 33.3897C107.724 33.3897 107.058 34.2606 106.054 35.5604C105.049 36.8603 103.705 38.5906 102.349 40.3108C100.994 42.0311 99.6248 43.7424 98.5693 45.0056C97.5137 46.2689 96.7709 47.085 96.6663 47.0151L92.9845 36.0708C92.8799 36.0009 93.2479 35.468 93.8581 34.7065Z" fill="#CCCCCC"/>
<path d="M96.0434 21.7817C95.9855 22.064 96.0079 22.3568 96.1082 22.6269C96.1586 22.7651 96.228 22.8956 96.3146 23.0146C96.3887 23.116 96.4745 23.2082 96.5703 23.2894C96.8539 23.5291 97.2137 23.6599 97.5851 23.6583C97.6083 23.6581 97.6314 23.6574 97.6545 23.6564C97.6777 23.6553 97.7008 23.6537 97.724 23.6515C97.7473 23.6495 97.7706 23.647 97.7937 23.6437C97.8169 23.6405 97.8401 23.6368 97.8635 23.6327L99.1755 23.3942L100.983 19.5333V23.0698L106.948 21.9959V6.98871L96.9476 7.03672L97.1948 7.32386C98.0154 8.2873 98.5543 9.45847 98.7521 10.7085C98.9461 11.9745 98.9218 13.2645 98.6801 14.5223C98.4452 15.795 98.0886 17.0423 97.6153 18.2469C97.2015 19.3141 96.7266 20.3565 96.1929 21.369C96.124 21.4989 96.0737 21.6378 96.0434 21.7817Z" fill="#2F2E41"/>
<path d="M26.7756 157H150.389C150.475 157 150.557 156.966 150.618 156.905C150.679 156.844 150.713 156.762 150.713 156.676C150.713 156.59 150.679 156.507 150.618 156.446C150.557 156.385 150.475 156.351 150.389 156.351H26.7756C26.6896 156.351 26.607 156.385 26.5462 156.446C26.4854 156.507 26.4512 156.59 26.4512 156.676C26.4512 156.762 26.4854 156.844 26.5462 156.905C26.607 156.966 26.6896 157 26.7756 157Z" fill="#CACACA"/>
</g>
<defs>
<clipPath id="clip0_30_613">
<rect width="150.713" height="157" fill="white"/>
</clipPath>
</defs>
</svg>
