<svg width="154" height="172" viewBox="0 0 154 172" fill="none" xmlns="http://www.w3.org/2000/svg">
<g clip-path="url(#clip0_30_557)">
<path d="M134.594 132.033H2.5603V0H134.594V132.033Z" fill="white"/>
<path d="M134.594 132.033H2.5603V0H134.594V132.033ZM4.51107 130.083H132.643V1.95078H4.51107V130.083Z" fill="#E5E5E5"/>
<path d="M111.203 20.6567H54.0273V22.4377H111.203V20.6567Z" fill="#E5E5E5"/>
<path d="M111.203 25.2874H54.0273V27.0685H111.203V25.2874Z" fill="#E5E5E5"/>
<path d="M111.203 29.9182H54.0273V31.6992H111.203V29.9182Z" fill="#E5E5E5"/>
<path d="M111.203 60.42H54.0273V62.2011H111.203V60.42Z" fill="#E5E5E5"/>
<path d="M111.203 65.0508H54.0273V66.8318H111.203V65.0508Z" fill="#E5E5E5"/>
<path d="M111.203 69.6815H54.0273V71.4626H111.203V69.6815Z" fill="#E5E5E5"/>
<path d="M111.203 100.183H54.0273V101.964H111.203V100.183Z" fill="#E5E5E5"/>
<path d="M111.203 104.814H54.0273V106.595H111.203V104.814Z" fill="#E5E5E5"/>
<path d="M111.203 109.445H54.0273V111.226H111.203V109.445Z" fill="#E5E5E5"/>
<path d="M31.1385 34.8472C30.1618 34.3325 29.1422 33.9034 28.0913 33.5649L27.9574 32.0825L22.5228 31.497L21.8322 33.3917L19.8818 34.1236C19.8121 34.1501 19.7456 34.1847 19.6839 34.2267H19.6818C19.573 34.3002 19.4803 34.3952 19.4094 34.5058C19.3385 34.6164 19.2909 34.7403 19.2695 34.8699C19.2487 34.9988 19.2536 35.1305 19.284 35.2575L19.3871 35.6801C19.5355 35.7688 19.6881 35.8533 19.8406 35.9337L19.9375 35.9832C20.1602 36.0987 20.387 36.2079 20.6199 36.3089C20.6673 36.3296 20.7189 36.3502 20.7663 36.3708C20.7704 36.3729 20.7725 36.3729 20.7766 36.3749C20.8859 36.4203 20.9951 36.4636 21.1065 36.5048C21.4722 36.6445 21.8452 36.7642 22.2239 36.8635C23.1903 37.1211 24.1863 37.2514 25.1865 37.2511C25.5514 37.2511 25.9122 37.2346 26.2689 37.1996C27.0838 37.1244 27.8884 36.9619 28.6687 36.7151C28.6707 36.7151 28.6728 36.713 28.6748 36.713C29.1677 36.556 29.6493 36.3652 30.116 36.142C30.118 36.1399 30.1221 36.1399 30.1242 36.1378C30.2293 36.0884 30.3304 36.0348 30.4335 35.9832L30.4829 35.9585C30.5653 35.9152 30.6479 35.8719 30.7303 35.8265C30.9365 35.7131 31.1385 35.5936 31.3385 35.4657C31.3941 35.4327 31.4478 35.3977 31.5035 35.3606C31.5818 35.309 31.6601 35.2554 31.7364 35.1998C31.5446 35.0761 31.3447 34.9586 31.1385 34.8472Z" fill="#3F3D56"/>
<path d="M20.9395 35.7605L20.5993 34.2246H19.7107C19.7018 34.2247 19.6928 34.2254 19.6839 34.2266H19.6818C19.3625 34.2537 19.055 34.36 18.7871 34.5359C18.6054 34.6519 18.4439 34.7967 18.3088 34.9647C18.5727 35.1647 18.8469 35.3502 19.1294 35.5275L19.1418 35.5337C19.2221 35.5832 19.3046 35.6327 19.3871 35.6801C19.5355 35.7688 19.6881 35.8533 19.8406 35.9337L19.9375 35.9832C20.1602 36.0986 20.387 36.2079 20.62 36.3089C20.6674 36.3295 20.7189 36.3501 20.7663 36.3708C20.7705 36.3728 20.7725 36.3728 20.7766 36.3749C20.8859 36.4203 20.9951 36.4635 21.1065 36.5048L20.9395 35.7605Z" fill="#3F3D56"/>
<path d="M25.0268 30.5599C27.1884 30.5599 28.9408 28.8075 28.9408 26.6459C28.9408 24.4843 27.1884 22.7319 25.0268 22.7319C22.8651 22.7319 21.1128 24.4843 21.1128 26.6459C21.1128 28.8075 22.8651 30.5599 25.0268 30.5599Z" fill="#FFB8B8"/>
<path d="M22.399 24.7395C22.8042 25.2189 23.4899 25.3542 24.1224 25.4097C25.6012 25.4914 27.0842 25.3703 28.5302 25.0498C28.6198 25.9182 28.3755 26.8545 28.887 27.5689C29.1268 26.7041 29.2662 25.8145 29.3025 24.9178C29.3407 24.5331 29.2905 24.1447 29.1556 23.7823C29.0836 23.6007 28.962 23.443 28.8047 23.3271C28.6475 23.2111 28.4608 23.1416 28.266 23.1265C28.5576 22.9053 28.8992 22.7592 29.2606 22.7013L28.0178 22.0767L28.337 21.7491L26.087 21.6114L26.7387 21.1974C25.7578 21.0626 24.7656 21.0313 23.7782 21.1039C23.3168 21.1042 22.8641 21.23 22.4688 21.4679C22.0973 21.7336 21.8827 22.2616 22.1133 22.6516C21.8246 22.699 21.5527 22.8193 21.3235 23.0012C21.0943 23.1831 20.9153 23.4205 20.8035 23.6909C20.6621 24.1206 20.628 24.5785 20.7041 25.0245C20.7888 25.7401 20.9551 26.4436 21.1997 27.1214L22.399 24.7395Z" fill="#2F2E41"/>
<path d="M36.0328 22.403C35.4836 20.8254 34.597 19.3865 33.4346 18.1868C32.2722 16.9871 30.8622 16.0554 29.3027 15.4566C27.7432 14.8578 26.0719 14.6064 24.4053 14.7199C22.7387 14.8335 21.1169 15.3091 19.6531 16.1138C18.1892 16.9185 16.9185 18.0329 15.9295 19.3791C14.9406 20.7254 14.2572 22.2712 13.927 23.9087C13.5968 25.5462 13.6279 27.236 14.0179 28.8603C14.4079 30.4846 15.1475 32.0043 16.1852 33.3133C16.2882 33.4432 16.3955 33.5731 16.5048 33.6989C16.513 33.7071 16.5192 33.7154 16.5274 33.7236C16.7962 34.0332 17.0818 34.3278 17.383 34.606C17.4614 34.6781 17.5439 34.7524 17.6263 34.8225C17.7829 34.9627 17.9438 35.0967 18.1108 35.2245C18.1768 35.276 18.2407 35.3276 18.3087 35.3771C18.5726 35.577 18.8468 35.7626 19.1293 35.9399L19.1417 35.9461C19.222 35.9956 19.3045 36.045 19.387 36.0925C19.5354 36.1811 19.688 36.2656 19.8405 36.346L19.9374 36.3955C20.1601 36.511 20.3869 36.6202 20.6199 36.7213C20.6673 36.7419 20.7188 36.7625 20.7662 36.7831C20.7704 36.7852 20.7724 36.7852 20.7765 36.7872C20.8858 36.8326 20.995 36.8759 21.1064 36.9171C21.4721 37.0568 21.8451 37.1765 22.2238 37.2758C23.1902 37.5334 24.1862 37.6637 25.1864 37.6634C25.5513 37.6634 25.9121 37.6469 26.2688 37.6119C27.0837 37.5367 27.8883 37.3742 28.6686 37.1274C28.6706 37.1274 28.6727 37.1254 28.6747 37.1254C29.1677 36.9683 29.6492 36.7775 30.1159 36.5543C30.1179 36.5522 30.122 36.5522 30.1241 36.5502C30.2292 36.5007 30.3303 36.4471 30.4334 36.3955L30.4828 36.3708C30.5653 36.3275 30.6478 36.2842 30.7303 36.2388C30.9364 36.1254 31.1385 36.0059 31.3384 35.878C31.3941 35.845 31.4477 35.81 31.5034 35.7729C31.5817 35.7214 31.66 35.6677 31.7363 35.6121C31.8373 35.542 31.9384 35.4698 32.0373 35.3956C32.0682 35.3729 32.1013 35.3503 32.1321 35.3255C34.0637 33.8594 35.4814 31.8195 36.1821 29.498C36.8828 27.1766 36.8306 24.6929 36.0328 22.403ZM31.7528 34.8245C31.6848 34.8781 31.6147 34.9297 31.5446 34.9771C31.4765 35.0286 31.4086 35.0781 31.3384 35.1235C31.2786 35.1668 31.2188 35.208 31.157 35.2472L31.1385 35.2595C31.0931 35.2905 31.0478 35.3193 31.0024 35.3482C30.8312 35.4554 30.6581 35.5585 30.4828 35.6574L30.4272 35.6884C30.3488 35.7317 30.2705 35.7729 30.1922 35.8141C30.1818 35.8203 30.1694 35.8244 30.1592 35.8306L30.1468 35.8368C30.0478 35.8884 29.9468 35.9378 29.8458 35.9852C29.456 36.173 29.0545 36.3355 28.6438 36.4718C28.5902 36.4904 28.5366 36.5089 28.4831 36.5254C27.7445 36.7603 26.9828 36.9151 26.2111 36.9872C25.873 37.0182 25.5307 37.0346 25.1864 37.0346C24.2404 37.0366 23.2983 36.9132 22.3847 36.6677C21.9158 36.5453 21.4562 36.3896 21.0095 36.2017C20.9868 36.1914 20.962 36.1832 20.9394 36.1729C20.9147 36.1626 20.892 36.1543 20.8693 36.144C20.8445 36.1337 20.8219 36.1234 20.7971 36.111C20.6033 36.0265 20.4116 35.9337 20.224 35.8368L20.1333 35.7894C19.9044 35.6698 19.6797 35.542 19.4612 35.4059C19.3972 35.3667 19.3313 35.3255 19.2694 35.2822C19.253 35.2719 19.2385 35.2616 19.222 35.2513C19.0756 35.1544 18.9293 35.0534 18.787 34.9482C18.6902 34.8761 18.5932 34.8039 18.4984 34.7297C18.3396 34.6101 18.187 34.4823 18.0386 34.3503C17.9603 34.2844 17.884 34.2122 17.8098 34.1442C17.5175 33.8743 17.2408 33.5879 16.981 33.2865C16.8945 33.1876 16.8099 33.0886 16.7295 32.9855C16.7112 32.9651 16.694 32.9438 16.6779 32.9216C15.3384 31.2313 14.5327 29.1803 14.3636 27.0302C14.1944 24.8801 14.6695 22.7283 15.7282 20.8494C16.787 18.9704 18.3814 17.4493 20.3081 16.4801C22.2348 15.511 24.4065 15.1376 26.5463 15.4077C28.686 15.6778 30.6969 16.5791 32.3223 17.9967C33.9477 19.4142 35.1141 21.2838 35.6727 23.367C36.2313 25.4501 36.1568 27.6524 35.4586 29.6931C34.7605 31.7337 33.4704 33.5201 31.7528 34.8245Z" fill="#3F3D56"/>
<path d="M36.033 62.1664C35.4839 60.5887 34.5972 59.1499 33.4348 57.9502C32.2725 56.7505 30.8624 55.8187 29.3029 55.22C27.7435 54.6212 26.0722 54.3698 24.4056 54.4833C22.739 54.5968 21.1172 55.0725 19.6533 55.8772C18.1895 56.6819 16.9187 57.7962 15.9298 59.1425C14.9408 60.4887 14.2574 62.0345 13.9273 63.672C13.5971 65.3095 13.6281 66.9993 14.0181 68.6236C14.4081 70.2479 15.1477 71.7676 16.1854 73.0767C16.2885 73.2066 16.3957 73.3364 16.5049 73.4622C16.5132 73.4705 16.5193 73.4787 16.5276 73.4869C16.7964 73.7966 17.082 74.0912 17.3832 74.3693C17.4616 74.4415 17.544 74.5157 17.6264 74.5858C17.7832 74.726 17.9439 74.86 18.111 74.9878C18.437 75.2448 18.777 75.4837 19.1294 75.7032L19.1418 75.7094C19.3706 75.8517 19.6035 75.9836 19.8407 76.1094L19.9376 76.1589C20.1602 76.2743 20.387 76.3836 20.62 76.4846C20.6674 76.5052 20.7189 76.5258 20.7664 76.5465C20.7705 76.5485 20.7726 76.5485 20.7767 76.5506C21.2474 76.7463 21.731 76.9096 22.224 77.0392C23.1904 77.2968 24.1864 77.4271 25.1866 77.4268C25.5515 77.4268 25.9123 77.4103 26.2689 77.3752C27.0839 77.3 27.8884 77.1376 28.6687 76.8908C28.6708 76.8908 28.6729 76.8887 28.6749 76.8887C29.1678 76.7317 29.6493 76.5409 30.116 76.3176C30.118 76.3156 30.1223 76.3156 30.1243 76.3135C30.2294 76.264 30.3304 76.2104 30.4335 76.1589L30.483 76.1341C30.5655 76.0908 30.6479 76.0475 30.7304 76.0022C30.9366 75.8888 31.1386 75.7692 31.3386 75.6414C31.3943 75.6084 31.4478 75.5733 31.5035 75.5362C31.6849 75.4167 31.8643 75.2888 32.0374 75.1589C32.0685 75.1363 32.1014 75.1136 32.1324 75.0889C34.0638 73.6227 35.4815 71.5828 36.1822 69.2613C36.8829 66.9399 36.8307 64.4563 36.033 62.1664Z" fill="white"/>
<path d="M28.9767 70.6758C29.9273 70.6758 30.6979 69.9051 30.6979 68.9545C30.6979 68.0038 29.9273 67.2332 28.9767 67.2332C28.026 67.2332 27.2554 68.0038 27.2554 68.9545C27.2554 69.9051 28.026 70.6758 28.9767 70.6758Z" fill="#2F2E41"/>
<path d="M29.4561 67.2806C29.754 67.2806 30.0468 67.3579 30.3059 67.505C30.565 67.6521 30.7815 67.8639 30.9342 68.1197C31.0869 68.3755 31.1706 68.6666 31.1771 68.9644C31.1837 69.2622 31.1128 69.5567 30.9714 69.8189C31.1206 69.6322 31.2293 69.4165 31.2905 69.1854C31.3517 68.9544 31.3641 68.7132 31.3269 68.4771C31.2897 68.241 31.2038 68.0152 31.0746 67.8142C30.9453 67.6132 30.7756 67.4412 30.5763 67.3094C30.377 67.1775 30.1523 67.0887 29.9168 67.0484C29.6812 67.0082 29.4398 67.0175 29.208 67.0757C28.9762 67.1338 28.759 67.2397 28.5704 67.3864C28.3817 67.5332 28.2257 67.7176 28.1123 67.928C28.2732 67.7259 28.4776 67.5628 28.7103 67.4507C28.943 67.3386 29.1978 67.2805 29.4561 67.2806Z" fill="#2F2E41"/>
<path d="M25.76 68.9508C28.5526 68.9508 30.8165 66.6869 30.8165 63.8943C30.8165 61.1017 28.5526 58.8379 25.76 58.8379C22.9675 58.8379 20.7036 61.1017 20.7036 63.8943C20.7036 66.6869 22.9675 68.9508 25.76 68.9508Z" fill="#2F2E41"/>
<path d="M21.7916 60.7571C22.6628 59.7773 23.8807 59.1742 25.1882 59.0753C26.4956 58.9764 27.7904 59.3893 28.7992 60.2268C28.7579 60.1875 28.7167 60.1479 28.674 60.1097C27.6752 59.2149 26.3618 58.7535 25.0227 58.8271C23.6837 58.9007 22.4287 59.5031 21.5339 60.502C20.6391 61.5009 20.1777 62.8143 20.2513 64.1533C20.3248 65.4923 20.9273 66.7473 21.9262 67.6421C21.9358 67.6507 21.9454 67.6593 21.9551 67.6678C21.9979 67.7059 22.0421 67.742 22.086 67.7785C21.136 66.8748 20.5743 65.6373 20.5194 64.3273C20.4645 63.0173 20.9205 61.7371 21.7916 60.7571Z" fill="#2F2E41"/>
<path d="M25.717 68.9079C27.5156 68.9079 28.9737 67.4498 28.9737 65.6513C28.9737 63.8527 27.5156 62.3947 25.717 62.3947C23.9185 62.3947 22.4604 63.8527 22.4604 65.6513C22.4604 67.4498 23.9185 68.9079 25.717 68.9079Z" fill="#A0616A"/>
<path d="M31.5447 74.1364V75.229C31.3447 75.3569 31.1426 75.4764 30.9365 75.5898C30.854 75.6352 30.7716 75.6785 30.6891 75.7218L30.6396 75.7465C30.5365 75.7981 30.4354 75.8517 30.3304 75.9011C30.3283 75.9032 30.3241 75.9032 30.3221 75.9053C29.8554 76.1285 29.3739 76.3193 28.8809 76.4763C28.8789 76.4763 28.8769 76.4784 28.8748 76.4784C28.0945 76.7253 27.29 76.8877 26.475 76.9629C26.1183 76.998 25.7575 77.0144 25.3926 77.0144C24.3925 77.0147 23.3965 76.8844 22.4301 76.6268C21.9371 76.4972 21.4535 76.334 20.9828 76.1382C20.9787 76.1362 20.9766 76.1362 20.9724 76.1341C20.925 76.1135 20.8735 76.0929 20.8261 76.0723C20.5931 75.9712 20.3663 75.862 20.1436 75.7465L20.0468 75.697C19.8096 75.5713 19.5767 75.4393 19.3479 75.2971L19.3355 75.2909C18.9831 75.0713 18.6431 74.8325 18.317 74.5755C18.15 74.4477 17.9893 74.3137 17.8325 74.1735C17.7501 74.1034 17.6676 74.0292 17.5893 73.957C17.2881 73.6788 17.0024 73.3842 16.7336 73.0746C16.7693 72.8599 16.8217 72.6482 16.8904 72.4417L16.8924 72.4396C16.9047 72.4044 16.9192 72.37 16.9357 72.3365C16.9471 72.3069 16.9601 72.278 16.9748 72.2499C17.3439 71.5593 18.0119 71.3882 18.8407 71.351C19.3087 71.3304 19.8261 71.3531 20.3726 71.3469C20.6612 71.3449 20.9601 71.3346 21.259 71.3078C23.1454 71.1366 22.8033 70.0233 22.8877 69.4234C22.9723 68.842 23.496 69.3451 23.531 69.378L23.533 69.3801C24.6005 69.8797 25.7816 70.0867 26.9554 69.98C27.1574 69.9553 27.3595 69.9409 27.5615 69.9347C28.0934 69.9285 27.978 70.0811 27.7946 70.2068C27.7055 70.2654 27.6125 70.3178 27.5162 70.3635C27.5162 70.3635 27.4317 70.8789 27.3451 71.65C27.2626 72.3881 28.6769 72.7344 28.7944 72.7612C28.7968 72.7629 28.7997 72.7636 28.8026 72.7633C29.3191 72.6293 29.8629 72.6436 30.3716 72.8045H30.3737C30.6643 72.9114 30.9237 73.0892 31.1282 73.3218C31.3327 73.5544 31.4759 73.8344 31.5447 74.1364Z" fill="#6C63FF"/>
<path d="M21.0032 75.462C21.0032 75.6146 20.9992 75.761 20.993 75.8991C20.991 75.9816 20.9868 76.062 20.9827 76.1382C20.9786 76.1362 20.9765 76.1362 20.9723 76.1341C20.9249 76.1135 20.8734 76.0929 20.826 76.0723C20.593 75.9713 20.3662 75.862 20.1435 75.7465L20.0467 75.6971C19.8095 75.5713 19.5766 75.4394 19.3478 75.2971C19.3539 75.2249 19.3643 75.1528 19.3745 75.0806C19.3972 74.9219 19.4158 74.7611 19.4282 74.6023C19.5092 73.487 19.3071 72.3694 18.8406 71.3531V71.3511C18.7993 71.2686 18.7747 71.2232 18.7747 71.2232C18.7747 71.2232 19.3745 70.7078 20.2301 71.2232C20.2848 71.2554 20.333 71.2973 20.3724 71.3469C20.8879 71.9551 21.028 74.0003 21.0032 75.462Z" fill="#2F2E41"/>
<path d="M30.3653 75.1816C30.357 75.4125 30.3447 75.6538 30.3303 75.8991V75.9012C30.3283 75.9032 30.324 75.9032 30.322 75.9053C29.8553 76.1285 29.3738 76.3193 28.8809 76.4764C28.8788 76.4764 28.8768 76.4784 28.8747 76.4784L28.8521 75.8991L28.85 75.8228L28.7407 73.0025C28.7378 72.9386 28.7479 72.8748 28.7703 72.815C28.7927 72.7551 28.827 72.7004 28.8711 72.6542C28.9152 72.6079 28.9682 72.5711 29.027 72.5459C29.0857 72.5208 29.1489 72.5077 29.2129 72.5077H30.2581C30.3096 72.5077 30.3468 72.6128 30.3715 72.8025V72.8045C30.4222 73.5962 30.4201 74.3903 30.3653 75.1816Z" fill="#2F2E41"/>
<path d="M22.9319 61.5805V64.8379H23.686L24.6458 63.8096L24.5173 64.8379H27.851L27.6449 63.8096L28.0572 64.8379H28.5887V61.5805H22.9319Z" fill="#2F2E41"/>
<path d="M22.4177 65.437C22.5597 65.437 22.6748 65.226 22.6748 64.9657C22.6748 64.7055 22.5597 64.4944 22.4177 64.4944C22.2757 64.4944 22.1606 64.7055 22.1606 64.9657C22.1606 65.226 22.2757 65.437 22.4177 65.437Z" fill="#A0616A"/>
<path d="M29.0169 65.437C29.1588 65.437 29.2739 65.226 29.2739 64.9657C29.2739 64.7055 29.1588 64.4944 29.0169 64.4944C28.8749 64.4944 28.7598 64.7055 28.7598 64.9657C28.7598 65.226 28.8749 65.437 29.0169 65.437Z" fill="#A0616A"/>
<path d="M32.2436 74.7466C32.0705 74.8765 31.8911 75.0043 31.7097 75.1239C31.654 75.161 31.6004 75.1961 31.5448 75.2291C31.3448 75.3569 31.1427 75.4765 30.9365 75.5898C30.8541 75.6352 30.7717 75.6785 30.6892 75.7218V73.4498C30.6892 73.4498 31.019 73.7137 31.5448 74.1529C31.6107 74.2085 31.6788 74.2662 31.7509 74.3281C31.9035 74.4559 32.0684 74.5961 32.2436 74.7466Z" fill="#6C63FF"/>
<path d="M36.033 62.1664C35.4839 60.5887 34.5972 59.1499 33.4348 57.9502C32.2725 56.7505 30.8624 55.8187 29.3029 55.22C27.7435 54.6212 26.0722 54.3698 24.4056 54.4833C22.739 54.5968 21.1172 55.0725 19.6533 55.8772C18.1895 56.6819 16.9187 57.7962 15.9298 59.1425C14.9408 60.4887 14.2574 62.0345 13.9273 63.672C13.5971 65.3095 13.6281 66.9993 14.0181 68.6236C14.4081 70.2479 15.1477 71.7676 16.1854 73.0767C16.2885 73.2066 16.3957 73.3364 16.5049 73.4622C16.5132 73.4705 16.5193 73.4787 16.5276 73.4869C16.7964 73.7966 17.082 74.0912 17.3832 74.3693C17.4616 74.4415 17.544 74.5157 17.6264 74.5858C17.7832 74.726 17.9439 74.86 18.111 74.9878C18.437 75.2448 18.777 75.4837 19.1294 75.7032L19.1418 75.7094C19.3706 75.8517 19.6035 75.9836 19.8407 76.1094L19.9376 76.1589C20.1602 76.2743 20.387 76.3836 20.62 76.4846C20.6674 76.5052 20.7189 76.5258 20.7664 76.5465C20.7705 76.5485 20.7726 76.5485 20.7767 76.5506C21.2474 76.7463 21.731 76.9096 22.224 77.0392C23.1904 77.2968 24.1864 77.4271 25.1866 77.4268C25.5515 77.4268 25.9123 77.4103 26.2689 77.3752C27.0839 77.3 27.8884 77.1376 28.6687 76.8908C28.6708 76.8908 28.6729 76.8887 28.6749 76.8887C29.1678 76.7317 29.6493 76.5409 30.116 76.3176C30.118 76.3156 30.1223 76.3156 30.1243 76.3135C30.2294 76.264 30.3304 76.2104 30.4335 76.1589L30.483 76.1341C30.5655 76.0908 30.6479 76.0475 30.7304 76.0022C30.9366 75.8888 31.1386 75.7692 31.3386 75.6414C31.3943 75.6084 31.4478 75.5733 31.5035 75.5362C31.6849 75.4167 31.8643 75.2888 32.0374 75.1589C32.0685 75.1363 32.1014 75.1136 32.1324 75.0889C34.0638 73.6227 35.4815 71.5828 36.1822 69.2613C36.8829 66.9399 36.8307 64.4563 36.033 62.1664ZM31.753 74.5879C31.6849 74.6415 31.6148 74.693 31.5448 74.7404C31.4767 74.792 31.4087 74.8415 31.3386 74.8868C31.2788 74.9301 31.219 74.9713 31.1571 75.0105C31.1056 75.0456 31.054 75.0786 31.0025 75.1115C30.8315 75.2187 30.6583 75.3218 30.483 75.4208L30.4273 75.4517C30.349 75.495 30.2706 75.5362 30.1923 75.5775C30.182 75.5836 30.1696 75.5878 30.1593 75.594L30.1469 75.6001C30.048 75.6517 29.947 75.7012 29.8459 75.7486C29.4561 75.9363 29.0546 76.0989 28.644 76.2351C28.5904 76.2537 28.5368 76.2722 28.4832 76.2887C27.7446 76.5236 26.9829 76.6785 26.2112 76.7506C25.8731 76.7815 25.5308 76.798 25.1866 76.798C24.2405 76.7999 23.2984 76.6765 22.3848 76.431C21.9159 76.3086 21.4564 76.1529 21.0097 75.9651C20.9623 75.9465 20.9148 75.9259 20.8694 75.9073C20.8448 75.897 20.822 75.8867 20.7973 75.8743C20.6035 75.7898 20.4118 75.697 20.2242 75.6001L20.1335 75.5527C19.9047 75.4332 19.6799 75.3053 19.4613 75.1693C19.381 75.1198 19.3005 75.0682 19.2222 75.0146C18.9748 74.8517 18.7336 74.6765 18.4985 74.493C18.3398 74.3734 18.1873 74.2456 18.0388 74.1137C17.9605 74.0477 17.8841 73.9756 17.81 73.9075C17.5177 73.6376 17.241 73.3512 16.9812 73.0499C16.8946 72.9509 16.81 72.8519 16.7296 72.7489C16.7113 72.7285 16.6941 72.7071 16.6781 72.685C15.3385 70.9946 14.5328 68.9436 14.3637 66.7935C14.1945 64.6434 14.6696 62.4917 15.7284 60.6127C16.7871 58.7337 18.3815 57.2126 20.3082 56.2435C22.2349 55.2743 24.4067 54.901 26.5464 55.1711C28.6862 55.4412 30.697 56.3425 32.3224 57.76C33.9479 59.1776 35.1143 61.0472 35.6728 63.1303C36.2314 65.2135 36.1569 67.4158 35.4588 69.4564C34.7606 71.497 33.4705 73.2835 31.753 74.5879Z" fill="#3F3D56"/>
<path d="M25.2514 110.867C27.7366 110.867 29.7512 108.852 29.7512 106.367C29.7512 103.882 27.7366 101.867 25.2514 101.867C22.7661 101.867 20.7515 103.882 20.7515 106.367C20.7515 108.852 22.7661 110.867 25.2514 110.867Z" fill="#2F2E41"/>
<path d="M21.7391 103.941C22.4663 103.214 22.6137 102.182 22.0683 101.637C21.5229 101.091 20.4913 101.239 19.7642 101.966C19.037 102.693 18.8896 103.725 19.435 104.27C19.9804 104.815 21.012 104.668 21.7391 103.941Z" fill="#2F2E41"/>
<path d="M29.9415 102.512C30.2445 101.803 29.7235 100.9 28.7778 100.496C27.8321 100.092 26.8198 100.34 26.5168 101.049C26.2139 101.758 26.7349 102.661 27.6806 103.065C28.6263 103.469 29.6386 103.221 29.9415 102.512Z" fill="#2F2E41"/>
<path d="M30.6338 115.096L30.1036 114.261C29.8787 113.759 29.4637 113.366 28.9496 113.169C28.4356 112.972 27.8643 112.986 27.3609 113.209C26.8576 113.432 26.4631 113.846 26.2641 114.359C26.065 114.873 26.0775 115.444 26.2988 115.948L26.4496 116.489L26.6211 117.102C27.3157 117.014 28.0011 116.865 28.669 116.655C28.671 116.655 28.6728 116.654 28.6742 116.652C29.168 116.496 29.65 116.305 30.1167 116.081C30.1192 116.078 30.1218 116.078 30.1244 116.075C30.2284 116.026 30.3298 115.974 30.4337 115.922C30.4507 115.915 30.4672 115.906 30.4831 115.896C30.5662 115.855 30.6494 115.81 30.73 115.766C30.8131 115.722 30.8937 115.675 30.9716 115.626L30.6338 115.096Z" fill="#CACACA"/>
<path d="M25.394 111.26C27.5031 111.26 29.213 109.551 29.213 107.441C29.213 105.332 27.5031 103.622 25.394 103.622C23.2848 103.622 21.575 105.332 21.575 107.441C21.575 109.551 23.2848 111.26 25.394 111.26Z" fill="#FFB6B6"/>
<path d="M30.9094 114.932C30.4882 114.231 29.9653 113.597 29.3578 113.05C28.9418 112.679 28.4033 112.473 27.8453 112.473H22.4655C22.1555 112.473 21.8488 112.537 21.5643 112.66C21.2798 112.783 21.0235 112.963 20.8114 113.189C20.5993 113.415 20.4357 113.682 20.3309 113.974C20.226 114.266 20.1821 114.576 20.2019 114.885C20.2136 115.06 20.245 115.232 20.2955 115.4C20.3339 115.521 20.3816 115.639 20.4384 115.753L20.7035 116.283C20.7243 116.291 20.7451 116.302 20.7658 116.309C20.771 116.312 20.7737 116.312 20.7762 116.315C20.8853 116.359 20.9946 116.403 21.1063 116.445C21.472 116.584 21.8451 116.704 22.2239 116.803C22.8336 116.967 23.456 117.079 24.0846 117.138C24.4511 117.172 24.8176 117.19 25.1866 117.19C25.5531 117.19 25.9117 117.172 26.2703 117.138C26.3873 117.128 26.5042 117.115 26.6212 117.102C27.3158 117.014 28.0011 116.865 28.6691 116.655C28.6711 116.655 28.6729 116.654 28.6743 116.652C29.168 116.496 29.6501 116.305 30.1168 116.081C30.1193 116.078 30.1218 116.078 30.1245 116.075C30.2284 116.026 30.3298 115.974 30.4338 115.922C30.4507 115.915 30.4672 115.906 30.4831 115.896C30.5663 115.855 30.6495 115.81 30.7301 115.766C30.8132 115.722 30.8937 115.675 30.9717 115.626C31.0549 115.582 31.1329 115.532 31.2134 115.483C31.1147 115.288 31.0134 115.106 30.9094 114.932Z" fill="#CACACA"/>
<path d="M23.4401 113.17C22.9423 112.937 22.3725 112.911 21.8553 113.097C21.3381 113.283 20.9156 113.666 20.6802 114.163L20.2019 114.885L19.9732 115.231L19.625 115.756C19.6977 115.795 19.7679 115.834 19.8407 115.873L19.9368 115.922C20.1604 116.036 20.3864 116.146 20.6204 116.247C20.6463 116.26 20.675 116.27 20.7035 116.283C20.7243 116.291 20.7451 116.302 20.7658 116.309C20.771 116.312 20.7737 116.312 20.7762 116.315C20.8854 116.359 20.9946 116.403 21.1063 116.445C21.472 116.584 21.8451 116.704 22.2239 116.803C22.8336 116.967 23.4561 117.079 24.0846 117.138L24.2666 116.522L24.4434 115.935C24.6763 115.435 24.7016 114.863 24.5135 114.345C24.3254 113.827 23.9394 113.404 23.4401 113.17Z" fill="#CACACA"/>
<path d="M21.3813 105.039C22.254 105.641 23.2899 105.961 24.3498 105.957C23.9717 106.219 23.5413 106.396 23.0882 106.476C24.4974 106.778 25.9538 106.786 27.3663 106.5C27.6803 106.449 27.9833 106.345 28.2619 106.192C28.4008 106.114 28.5218 106.009 28.617 105.881C28.7122 105.754 28.7796 105.608 28.8147 105.453C28.9086 104.916 28.4908 104.429 28.0565 104.101C27.3917 103.606 26.6252 103.265 25.8124 103.103C24.9996 102.94 24.1609 102.96 23.3569 103.162C22.8212 103.27 22.3337 103.545 21.9651 103.948C21.7866 104.154 21.679 104.411 21.6579 104.682C21.6368 104.953 21.7034 105.224 21.8479 105.454L21.3813 105.039Z" fill="#2F2E41"/>
<path d="M36.0343 101.93C35.4853 100.352 34.5986 98.9128 33.4363 97.7129C32.2739 96.513 30.8638 95.5811 29.3043 94.9822C27.7447 94.3833 26.0733 94.1318 24.4066 94.2453C22.7399 94.3588 21.118 94.8345 19.654 95.6392C18.19 96.444 16.9192 97.5584 15.9302 98.9047C14.9412 100.251 14.2578 101.797 13.9277 103.435C13.5975 105.072 13.6286 106.762 14.0188 108.387C14.4089 110.011 15.1487 111.531 16.1865 112.84C16.2878 112.97 16.3971 113.1 16.5062 113.224C16.5125 113.234 16.5194 113.242 16.527 113.25C16.7962 113.56 17.0825 113.854 17.3846 114.131C17.4625 114.204 17.5431 114.28 17.6264 114.35C17.7822 114.49 17.9434 114.623 18.1123 114.75C18.1772 114.802 18.2422 114.854 18.3098 114.903C18.5723 115.103 18.8478 115.288 19.1285 115.467C19.1333 115.467 19.1379 115.469 19.1414 115.472C19.222 115.522 19.3052 115.571 19.3884 115.618C19.4663 115.665 19.5469 115.712 19.6249 115.756C19.6976 115.795 19.7678 115.834 19.8406 115.873L19.9367 115.922C20.1603 116.036 20.3863 116.146 20.6203 116.247C20.6462 116.26 20.6749 116.27 20.7034 116.283C20.7242 116.291 20.745 116.302 20.7657 116.309C20.7709 116.312 20.7736 116.312 20.7761 116.315C20.8853 116.359 20.9945 116.403 21.1062 116.444C21.4719 116.584 21.845 116.704 22.2238 116.803C22.8335 116.967 23.456 117.079 24.0845 117.138C24.451 117.172 24.8175 117.19 25.1865 117.19C25.553 117.19 25.9116 117.172 26.2702 117.138C26.3872 117.128 26.5041 117.115 26.6211 117.102C27.3157 117.014 28.0011 116.865 28.669 116.655C28.671 116.655 28.6728 116.654 28.6742 116.652C29.168 116.496 29.65 116.305 30.1167 116.081C30.1192 116.078 30.1218 116.078 30.1244 116.075C30.2284 116.026 30.3297 115.974 30.4337 115.922C30.4507 115.914 30.4671 115.906 30.4831 115.896C30.5662 115.855 30.6494 115.81 30.73 115.766C30.8131 115.722 30.8937 115.675 30.9716 115.626C31.0549 115.582 31.1328 115.532 31.2134 115.483C31.255 115.457 31.2966 115.431 31.3381 115.405C31.3953 115.371 31.4472 115.337 31.5045 115.298C31.5824 115.249 31.6604 115.194 31.7357 115.14C31.8371 115.07 31.9385 114.997 32.0372 114.922C32.0705 114.9 32.1026 114.876 32.1334 114.851C34.0634 113.384 35.48 111.344 36.1807 109.023C36.8813 106.703 36.8301 104.22 36.0343 101.93ZM31.754 114.35C31.6863 114.404 31.6162 114.456 31.5461 114.503C31.4758 114.555 31.4083 114.604 31.3381 114.651C31.2783 114.693 31.2186 114.734 31.1563 114.773C31.1506 114.778 31.1445 114.783 31.138 114.786C31.0938 114.818 31.047 114.846 31.0029 114.875C30.9716 114.893 30.9405 114.914 30.9093 114.932C30.8183 114.989 30.7274 115.044 30.6338 115.096C30.5845 115.127 30.5324 115.155 30.4831 115.184C30.4649 115.194 30.4466 115.205 30.4285 115.215C30.3479 115.259 30.27 115.298 30.192 115.34C30.1817 115.348 30.1686 115.35 30.1609 115.358C30.156 115.358 30.1514 115.36 30.1478 115.363C30.0491 115.415 29.9477 115.465 29.8464 115.511C29.4562 115.699 29.0542 115.862 28.643 115.997C28.5911 116.016 28.5366 116.036 28.4845 116.052C27.8217 116.262 27.1403 116.409 26.4496 116.489C26.3716 116.499 26.2911 116.507 26.2105 116.515C25.8727 116.546 25.5322 116.561 25.1865 116.561C24.8798 116.561 24.5706 116.548 24.2665 116.522C23.6308 116.47 23.0012 116.36 22.385 116.195C21.9159 116.073 21.4564 115.916 21.0101 115.727C20.9867 115.717 20.9633 115.709 20.94 115.699C20.914 115.688 20.8932 115.68 20.8698 115.67C20.8438 115.66 20.823 115.649 20.797 115.636C20.6281 115.563 20.4592 115.483 20.2955 115.4C20.272 115.387 20.2486 115.376 20.2253 115.363L20.1343 115.317C20.0797 115.288 20.0252 115.259 19.9731 115.231C19.799 115.137 19.6275 115.036 19.4612 114.932C19.3988 114.893 19.3313 114.851 19.2688 114.81L19.222 114.779C19.0765 114.68 18.931 114.581 18.788 114.475C18.6918 114.402 18.5931 114.332 18.4996 114.256C18.3411 114.137 18.1877 114.009 18.0396 113.877C17.9615 113.812 17.8836 113.739 17.8109 113.671C17.5182 113.402 17.2414 113.115 16.9819 112.814C16.8961 112.715 16.8103 112.616 16.7297 112.512C16.7116 112.492 16.696 112.471 16.6777 112.447C15.3379 110.757 14.5319 108.706 14.3626 106.555C14.1933 104.405 14.6683 102.253 15.727 100.374C16.7858 98.4943 18.3803 96.9729 20.3072 96.0035C22.2342 95.0341 24.4062 94.6606 26.5462 94.9306C28.6863 95.2007 30.6974 96.102 32.3231 97.5197C33.9488 98.9374 35.1154 100.807 35.6742 102.891C36.2329 104.974 36.1584 107.177 35.4602 109.218C34.762 111.258 33.4717 113.045 31.754 114.35Z" fill="#3F3D56"/>
<path d="M44.4012 45.8159C40.402 42.4414 35.5082 40.3019 30.3153 39.658C25.1224 39.014 19.8543 39.8933 15.152 42.1888C10.4497 44.4843 6.51595 48.0971 3.82948 52.5875C1.14301 57.078 -0.180372 62.2524 0.020363 67.4812C0.221098 72.7101 1.9373 77.7678 4.96012 82.0391C7.98295 86.3103 12.1821 89.6109 17.0465 91.5391C21.911 93.4674 27.231 93.9402 32.3593 92.9C37.4875 91.8598 42.2029 89.3515 45.9316 85.6802L79.0417 113.618C79.5458 114.042 80.1972 114.249 80.8533 114.193C81.5094 114.137 82.1166 113.823 82.5417 113.32C82.9668 112.817 83.1752 112.167 83.1212 111.51C83.0672 110.854 82.7552 110.246 82.2536 109.819L82.2499 109.816L49.1398 81.8781C52.9861 76.3578 54.6323 69.6 53.7558 62.9292C52.8792 56.2583 49.5431 50.1552 44.4012 45.8159ZM42.2667 79.1879C39.6873 82.2448 36.2593 84.4682 32.4162 85.5769C28.5732 86.6856 24.4876 86.6298 20.6763 85.4166C16.865 84.2033 13.499 81.8871 11.004 78.7609C8.50901 75.6346 6.9971 71.8388 6.65945 67.8532C6.3218 63.8677 7.17357 59.8716 9.10706 56.3702C11.0405 52.8688 13.9689 50.0193 17.5218 48.1822C21.0747 46.345 25.0926 45.6027 29.0674 46.0491C33.0423 46.4955 36.7954 48.1105 39.8524 50.6899C43.9516 54.1488 46.5089 59.0944 46.9617 64.4389C47.4144 69.7833 45.7256 75.0886 42.2667 79.1879Z" fill="#3F3D56"/>
<path opacity="0.3" d="M13.7688 81.6022C9.88915 78.3283 7.38261 73.7151 6.74687 68.6786C6.11113 63.6421 7.39268 58.5508 10.3371 54.4155C9.95039 54.8049 9.57658 55.2127 9.21563 55.639C7.50295 57.6687 6.20683 60.0159 5.40127 62.5465C4.59571 65.0772 4.29648 67.7417 4.52067 70.388C4.74487 73.0342 5.48809 75.6105 6.7079 77.9695C7.92772 80.3286 9.60023 82.4242 11.63 84.1369C13.6597 85.8496 16.0069 87.1457 18.5375 87.9513C21.0682 88.7568 23.7327 89.0561 26.379 88.8319C29.0253 88.6077 31.6015 87.8645 33.9605 86.6447C36.3196 85.4248 38.4153 83.7523 40.1279 81.7226C40.4881 81.2958 40.8272 80.8587 41.1453 80.4113C37.5643 84.0094 32.7611 86.1292 27.6895 86.3499C22.6178 86.5705 17.6487 84.8757 13.7688 81.6022Z" fill="black"/>
<path d="M111.151 114.663C111.41 114.347 111.596 113.979 111.697 113.583C111.798 113.187 111.81 112.775 111.734 112.374C111.658 111.973 111.495 111.593 111.257 111.262C111.018 110.931 110.71 110.656 110.354 110.457L104.318 85.7544L99.9158 87.1598L106.433 111.694C106.138 112.314 106.081 113.022 106.273 113.682C106.464 114.341 106.891 114.908 107.473 115.274C108.055 115.64 108.75 115.78 109.428 115.667C110.106 115.555 110.719 115.197 111.151 114.663Z" fill="#FFB6B6"/>
<path d="M108.032 98.8621L104.814 101.638L100.313 105.518L98.325 95.3461L98.1171 94.2883L97.9534 93.4489L102.514 85.504L106.317 85.7221L106.577 85.7377L106.582 85.7951L106.642 86.3279L107.421 93.3395L107.439 93.5087L108.032 98.8621Z" fill="#3F3D56"/>
<path d="M87.0017 167.909L83.8157 167.908L82.2998 155.619L87.0025 155.619L87.0017 167.909Z" fill="#FFB6B6"/>
<path d="M87.8144 170.997L77.5408 170.997V170.867C77.5408 169.806 77.9622 168.789 78.7121 168.039C79.462 167.289 80.4791 166.868 81.5396 166.868H81.5398L87.8146 166.868L87.8144 170.997Z" fill="#2F2E41"/>
<path d="M120.268 168.168L117.082 168.168L115.566 155.878L120.269 155.879L120.268 168.168Z" fill="#FFB6B6"/>
<path d="M121.08 171.257L110.807 171.257V171.127C110.807 170.066 111.228 169.049 111.978 168.299C112.728 167.549 113.745 167.128 114.805 167.128H114.806L121.081 167.128L121.08 171.257Z" fill="#2F2E41"/>
<path d="M122.815 163.276L114.238 164.576L101.761 122.349L88.509 164.835L78.8931 163.536L91.3678 114.157V110.258L93.0571 104.411L92.8803 102.828L91.6511 91.7594L91.1183 86.9593L91.0838 86.6492C91.0548 86.389 91.1238 86.1273 91.2771 85.9151C91.4305 85.7029 91.6574 85.5554 91.9136 85.5013L95.9159 84.6592H102.457L106.317 85.7222L106.582 85.795L106.701 85.8287L106.642 86.3277L105.737 93.9113L105.688 94.3272L104.815 101.638L104.622 103.241C112.159 108.699 112.419 114.157 112.419 114.157L122.815 163.276Z" fill="#2F2E41"/>
<path d="M98.3961 81.3712C101.921 81.3712 104.779 78.5134 104.779 74.988C104.779 71.4627 101.921 68.6049 98.3961 68.6049C94.8708 68.6049 92.0129 71.4627 92.0129 74.988C92.0129 78.5134 94.8708 81.3712 98.3961 81.3712Z" fill="#FFB6B6"/>
<path d="M105.1 101.775L92.4731 103.426L92.709 105.23L105.336 103.579L105.1 101.775Z" fill="#3F3D56"/>
<path d="M75.5357 103.97C75.6564 104.048 75.7708 104.135 75.8778 104.231L88.3672 101.048L89.2192 98.0347L93.9345 98.7262L92.9445 104.207C92.8645 104.649 92.6431 105.054 92.3134 105.361C91.9838 105.667 91.5637 105.858 91.1162 105.905L76.5334 107.441C76.2958 107.941 75.9114 108.357 75.4314 108.634C74.9514 108.91 74.3986 109.034 73.8464 108.989C73.2943 108.944 72.769 108.732 72.3404 108.381C71.9118 108.03 71.6003 107.556 71.4473 107.024C71.2942 106.491 71.3069 105.925 71.4836 105.4C71.6603 104.875 71.9927 104.416 72.4365 104.085C72.8803 103.753 73.4146 103.564 73.9682 103.544C74.5218 103.523 75.0686 103.672 75.5357 103.97Z" fill="#FFB6B6"/>
<path d="M94.7462 87.1282L92.5372 85.4389C91.9399 85.2124 91.1215 85.8561 90.9778 86.4785L87.8591 99.2131L94.3564 103.891L95.266 102.462L94.7462 87.1282Z" fill="#3F3D56"/>
<g opacity="0.2">
<path d="M107.421 93.3396C106.87 93.5584 106.308 93.7493 105.737 93.9113C105.555 93.9659 105.368 94.0179 105.183 94.0673C103.967 94.4047 102.717 94.6069 101.457 94.6702C100.914 94.6932 100.37 94.6784 99.8297 94.626C99.2494 94.5682 98.6759 94.4551 98.1171 94.2882C98.0988 94.283 98.078 94.2778 98.0598 94.2726C96.8978 93.9426 95.8324 93.3373 94.9541 92.5079C94.7579 92.3168 94.5747 92.1128 94.4058 91.8972C93.9205 91.3028 93.5644 90.6138 93.3604 89.8741C93.1563 89.1344 93.1087 88.3603 93.2206 87.6012C93.2424 87.4636 93.2719 87.3274 93.3091 87.1932C93.407 86.8274 93.5365 86.4709 93.6963 86.1276C93.7664 85.9665 93.8445 85.8079 93.9276 85.652L96.8643 84.6592H102.457L106.317 85.7222L106.576 85.7378L106.582 85.795L106.701 85.8287L106.641 86.3277L107.421 93.3396Z" fill="black"/>
</g>
<path d="M93.5049 69.7034C92.3112 69.5571 91.0012 69.6606 90.0707 70.4226C89.1403 71.1847 88.84 72.7689 89.7209 73.5877C90.5008 74.3125 91.7203 74.1421 92.7649 74.3482C93.6648 74.5499 94.471 75.0476 95.0545 75.7618C95.638 76.4759 95.9651 77.3652 95.9833 78.2872C95.9678 80.9314 93.4301 82.9338 92.9743 85.5384C92.6632 87.316 93.4129 89.1868 94.7091 90.4425C96.0052 91.6981 97.787 92.3767 99.5823 92.5605C101.377 92.7443 103.193 92.4636 104.937 92.0024C106.689 91.5392 108.414 90.8821 109.884 89.8224C111.354 88.7627 112.559 87.2688 113.031 85.5192C113.503 83.7696 113.165 81.7635 111.948 80.4202C110.555 78.8819 108.238 78.3529 107.034 76.6633C105.683 74.7693 106.183 72.072 105.09 70.0186C104.36 68.6476 102.978 67.7125 101.506 67.2199C100.033 66.7273 98.4599 66.6301 96.9076 66.5824C96.0916 66.5573 95.2507 66.549 94.4905 66.8464C93.7303 67.1439 93.0621 67.8219 93.0226 68.6372C92.9832 69.4526 93.5049 69.7034 93.5049 69.7034Z" fill="#2F2E41"/>
</g>
<defs>
<clipPath id="clip0_30_557">
<rect width="153.524" height="171.362" fill="white"/>
</clipPath>
</defs>
</svg>
